HIERARCHY
ROOT Hips
{
	OFFSET 0.000000 8.830580 0.000000
	CHANNELS 6 Xposition Yposition Zposition Zrotation Yrotation Xrotation 
	JOINT Spine
	{
		OFFSET 0.000000 0.010000 0.000000
		CHANNELS 3 Zrotation Yrotation Xrotation
		JOINT Spine1
		{
			OFFSET 0.000000 2.459130 0.000000
			CHANNELS 3 Zrotation Yrotation Xrotation
			JOINT Neck
			{
				OFFSET 0.000000 2.484630 0.000000
				CHANNELS 3 Zrotation Yrotation Xrotation
				JOINT Head_virtual
				{
					OFFSET 0.000000 0.000000 0.000000
					CHANNELS 3 Zrotation Yrotation Xrotation
					JOINT Head
					{
						OFFSET 0.000000 0.927525 0.000000
						CHANNELS 3 Zrotation Yrotation Xrotation
						End Site
						{
							OFFSET 0.000000 0.000000 0.000000
						}
					}
				}
				JOINT LeftUpArm_virtual
				{
					OFFSET 0.000000 0.000000 0.000000
					CHANNELS 3 Zrotation Yrotation Xrotation
					JOINT LeftUpArm
					{
						OFFSET 1.248820 0.000000 0.000000
						CHANNELS 3 Zrotation Yrotation Xrotation
						JOINT LeftForeArm
						{
							OFFSET 2.597580 0.000000 0.000000
							CHANNELS 3 Zrotation Yrotation Xrotation
							JOINT LeftHand
							{
								OFFSET 2.455420 0.000000 0.000000
								CHANNELS 3 Zrotation Yrotation Xrotation
								End Site
								{
									OFFSET 0.000000 0.000000 0.000000
								}
							}
						}
					}
				}
				JOINT RightUpArm_virtual
				{
					OFFSET -0.000000 -0.000000 -0.000000
					CHANNELS 3 Zrotation Yrotation Xrotation
					JOINT RightUpArm
					{
						OFFSET -1.248820 -0.000000 -0.000000
						CHANNELS 3 Zrotation Yrotation Xrotation
						JOINT RightForeArm
						{
							OFFSET -2.597580 -0.000000 -0.000000
							CHANNELS 3 Zrotation Yrotation Xrotation
							JOINT RightHand
							{
								OFFSET -2.455420 -0.000000 -0.000000
								CHANNELS 3 Zrotation Yrotation Xrotation
								End Site
								{
									OFFSET 0.000000 0.000000 0.000000
								}
							}
						}
					}
				}
			}
		}
	}
	JOINT LeftUpLeg
	{
		OFFSET 1.271939 0.000000 0.000000
		CHANNELS 3 Zrotation Yrotation Xrotation
		JOINT LeftLowLeg
		{
			OFFSET 0.000000 -4.342910 0.000000
			CHANNELS 3 Zrotation Yrotation Xrotation
			JOINT LeftFoot
			{
				OFFSET 0.000000 -4.487670 0.000000
				CHANNELS 3 Zrotation Yrotation Xrotation
				JOINT LeftToeBase
				{
					OFFSET 0.000000 0.000000 1.515070
					CHANNELS 3 Zrotation Yrotation Xrotation
					End Site
					{
						OFFSET 0.000000 0.000000 0.000000
					}
				}
			}
		}
	}
	JOINT RightUpLeg
	{
		OFFSET -1.271939 0.000000 0.000000
		CHANNELS 3 Zrotation Yrotation Xrotation
		JOINT RightLowLeg
		{
			OFFSET 0.000000 -4.342910 0.000000
			CHANNELS 3 Zrotation Yrotation Xrotation
			JOINT RightFoot
			{
				OFFSET 0.000000 -4.487670 0.000000
				CHANNELS 3 Zrotation Yrotation Xrotation
				JOINT RightToeBase
				{
					OFFSET 0.000000 0.000000 1.515070
					CHANNELS 3 Zrotation Yrotation Xrotation
					End Site
					{
						OFFSET 0.000000 0.000000 0.000000
					}
				}
			}
		}
	}
}
MOTION
Frames: 16
Frame Time: 0.041667
-18.749916 9.144770 42.939497 -175.418685 2.764877 -169.847134 1.893371 -0.248564 -9.422749 3.649925 0.162799 -9.784360 0.000000 0.000000 0.000000 -4.813391 -5.456692 22.648548 15.833377 9.458624 -88.559466 -23.196301 8.899670 -13.988400 15.757800 -13.853600 -27.282499 0.000000 -6.237000 0.000000 23.219700 4.799630 24.332500 19.896500 -5.747290 -6.375000 -9.139490 -1.006820 -58.588501 0.000000 14.185500 0.000000 -20.867399 -19.470501 49.287201 2.015962 3.228965 -7.939686 0.000000 0.000000 5.081820 -16.032791 9.395119 0.725938 0.000000 0.000000 -31.151899 7.742345 4.633451 -5.983375 0.000000 0.000000 7.027610 14.786790 -21.239558 2.587464 0.000000 0.000000 -30.993600 
-18.751856 9.144645 42.940368 -175.401535 2.737251 -169.771487 1.931152 -0.243220 -9.479566 3.594985 0.160622 -9.796849 0.000000 0.000000 0.000000 -4.803445 -5.447479 22.801067 15.836947 9.466844 -88.485089 -23.187000 8.925740 -14.027200 15.694900 -13.779300 -27.107700 0.000000 -6.318090 0.000000 23.159500 4.766880 24.299000 19.955799 -5.845670 -6.367004 -9.223470 -0.958436 -58.658298 0.000000 14.128900 0.000000 -20.959000 -19.174601 49.169998 2.024618 3.163022 -8.014981 0.000000 0.000000 5.063630 -16.042459 9.434526 0.706659 0.000000 0.000000 -31.153299 7.746179 4.602313 -6.057193 0.000000 0.000000 7.009280 14.804801 -21.210462 2.608195 0.000000 0.000000 -31.059200 
-18.753322 9.144620 42.941883 -175.396154 2.737142 -169.748902 1.937051 -0.232278 -9.466559 3.561081 0.173348 -9.856886 0.000000 0.000000 0.000000 -4.767291 -5.496410 22.996243 15.828653 9.446443 -88.332908 -23.201500 8.958700 -13.994300 15.700100 -13.728700 -26.971399 0.000000 -6.298900 0.000000 23.106001 4.777890 24.272600 19.966700 -5.895480 -6.391998 -9.266480 -0.979525 -58.728500 0.000000 14.140800 0.000000 -21.051600 -19.165600 49.158401 2.015638 3.194780 -8.045336 0.000000 0.000000 5.059920 -16.019941 9.415360 0.719798 0.000000 0.000000 -31.161400 7.743833 4.551952 -6.078535 0.000000 0.000000 6.987500 14.799653 -21.171504 2.633355 0.000000 0.000000 -31.125900 
-18.754669 9.144700 42.943293 -175.384087 2.746587 -169.730443 1.946431 -0.220191 -9.452750 3.531333 0.185446 -9.897472 0.000000 0.000000 0.000000 -4.777896 -5.459401 23.227514 15.837076 9.452628 -88.248933 -23.223200 9.034980 -14.048000 15.690900 -13.756700 -26.918800 0.000000 -6.221630 0.000000 23.097401 4.756830 24.268101 19.981100 -5.957280 -6.437988 -9.314630 -0.980428 -58.693199 0.000000 14.131700 0.000000 -21.197100 -19.078199 49.086601 2.014902 3.230189 -8.064108 0.000000 0.000000 5.042440 -16.017311 9.353159 0.742573 0.000000 0.000000 -31.237101 7.745331 4.536711 -6.096905 0.000000 0.000000 6.969230 14.795605 -21.148738 2.658043 0.000000 0.000000 -31.120600 
-18.755806 9.144712 42.944808 -175.382023 2.753026 -169.717525 1.935183 -0.218263 -9.435669 3.523573 0.192128 -9.941937 0.000000 0.000000 0.000000 -4.821216 -5.372855 23.490057 15.856797 9.437362 -88.129479 -23.236000 9.106550 -14.121000 15.670800 -13.744000 -26.835100 0.000000 -6.184410 0.000000 23.028799 4.849280 24.287500 19.986601 -5.984920 -6.524994 -9.368500 -1.007990 -58.619400 0.000000 14.101200 0.000000 -21.390400 -18.842199 49.277302 2.014426 3.179536 -8.084989 0.000000 0.000000 5.047110 -16.019233 9.434242 0.718418 0.000000 0.000000 -31.145000 7.738964 4.517106 -6.107011 0.000000 0.000000 6.946590 14.789988 -21.123472 2.676353 0.000000 0.000000 -31.126600 
-18.757103 9.144650 42.946386 -175.374644 2.765391 -169.717071 1.943252 -0.214144 -9.407917 3.487733 0.197666 -10.006460 0.000000 0.000000 0.000000 -4.809586 -5.377102 23.785906 15.833617 9.422852 -87.961422 -23.245399 9.127320 -14.192400 15.680700 -13.684100 -26.892099 0.000000 -6.155450 0.000000 22.987499 4.989060 24.399099 20.017099 -6.025900 -6.592010 -9.453100 -1.024890 -58.682598 0.000000 14.086100 0.000000 -21.371799 -18.714399 49.349098 2.011529 3.195019 -8.097852 0.000000 0.000000 5.053940 -16.025405 9.423420 0.720017 0.000000 0.000000 -31.175400 7.740158 4.439787 -6.129262 0.000000 0.000000 6.967650 14.788778 -21.038733 2.695829 0.000000 0.000000 -31.122999 
-18.758350 9.144691 42.947798 -175.370011 2.780062 -169.719341 1.946083 -0.220147 -9.391910 3.469109 0.193211 -10.052558 0.000000 0.000000 0.000000 -4.842540 -5.320759 24.093119 15.868592 9.381332 -87.782334 -23.284500 9.189980 -14.234300 15.731700 -13.649100 -26.887899 0.000000 -6.081630 0.000000 22.982100 4.983390 24.536400 20.030500 -6.078170 -6.665009 -9.517050 -1.023450 -58.453899 0.000000 14.115100 0.000000 -21.389099 -18.752199 48.988701 2.006207 3.198947 -8.101959 0.000000 0.000000 5.051390 -16.022546 9.419317 0.726192 0.000000 0.000000 -31.208401 7.734297 4.444329 -6.139150 0.000000 0.000000 6.972790 14.790786 -21.028704 2.704541 0.000000 0.000000 -31.137800 
-18.759187 9.144757 42.948878 -175.362072 2.798542 -169.724563 1.944479 -0.222664 -9.396852 3.451689 0.191516 -10.052757 0.000000 0.000000 0.000000 -4.914965 -5.185678 24.413200 15.939553 9.343287 -87.620573 -23.303200 9.242020 -14.301100 15.764000 -13.612100 -26.838200 0.000000 -6.022290 0.000000 22.973301 5.033790 24.534100 20.041599 -6.112030 -6.737000 -9.571230 -1.010130 -58.549599 0.000000 14.149600 0.000000 -21.510000 -18.793301 49.181198 2.000065 3.260148 -8.108741 0.000000 0.000000 5.066000 -16.002135 9.383227 0.732096 0.000000 0.000000 -31.230400 7.734532 4.455911 -6.146439 0.000000 0.000000 6.982360 14.794012 -21.025983 2.712314 0.000000 0.000000 -31.156000 
-18.760160 9.144908 42.950068 -175.361605 2.800754 -169.732951 1.943817 -0.228306 -9.402776 3.408869 0.187053 -10.053055 0.000000 0.000000 0.000000 -4.896421 -5.183323 24.741837 15.921990 9.348362 -87.458930 -23.320101 9.293460 -14.338000 15.826100 -13.603200 -26.876600 0.000000 -5.962530 0.000000 23.013901 5.101200 24.645201 20.062000 -6.186890 -6.830994 -9.640910 -0.974833 -58.642700 0.000000 14.133200 0.000000 -21.430099 -18.760799 49.316002 2.003895 3.170263 -8.100871 0.000000 0.000000 5.055640 -16.011735 9.468185 0.720111 0.000000 0.000000 -31.222799 7.730866 4.423539 -6.146078 0.000000 0.000000 6.983220 14.782681 -20.997332 2.729575 0.000000 0.000000 -31.143999 
-18.761144 9.144953 42.950966 -175.353041 2.807604 -169.751377 1.952547 -0.223851 -9.404572 3.366695 0.190387 -10.053757 0.000000 0.000000 0.000000 -4.935829 -5.106241 25.103651 15.902949 9.321196 -87.280298 -23.324600 9.354000 -14.401700 15.861100 -13.612700 -26.777000 0.000000 -5.917870 0.000000 23.060101 5.158790 24.577200 20.091101 -6.293480 -6.907013 -9.715400 -0.904260 -58.642399 0.000000 14.122400 0.000000 -21.548100 -18.674801 49.243000 2.000711 3.233765 -8.097400 0.000000 0.000000 5.073480 -15.990590 9.413946 0.736722 0.000000 0.000000 -31.222700 7.732056 4.454969 -6.133161 0.000000 0.000000 6.983780 14.786420 -21.019915 2.729453 0.000000 0.000000 -31.140699 
-18.762088 9.144998 42.951924 -175.350731 2.808921 -169.767852 1.946886 -0.226398 -9.428744 3.341244 0.188337 -10.014055 0.000000 0.000000 0.000000 -4.959110 -5.048182 25.437799 15.935345 9.292243 -87.093787 -23.338699 9.420870 -14.425800 15.911900 -13.631200 -26.859800 0.000000 -5.877420 0.000000 23.028400 5.206660 24.689100 20.105000 -6.309130 -7.006012 -9.782490 -0.975063 -58.587700 0.000000 14.177300 0.000000 -21.509899 -18.657301 49.315498 2.000088 3.218514 -8.090407 0.000000 0.000000 5.080130 -15.986107 9.426659 0.734418 0.000000 0.000000 -31.240499 7.731465 4.399491 -6.135929 0.000000 0.000000 7.007910 14.790315 -20.965718 2.738423 0.000000 0.000000 -31.164000 
-18.762915 9.145067 42.952136 -175.347955 2.841298 -169.789004 1.934120 -0.219105 -9.483220 3.320430 0.196080 -9.928078 0.000000 0.000000 0.000000 -4.991124 -4.960677 25.810220 15.973989 9.285577 -86.937057 -23.320900 9.490860 -14.489600 15.892700 -13.603900 -26.872200 0.000000 -5.971160 0.000000 23.002701 5.308750 24.714399 20.122101 -6.338290 -7.085999 -9.829720 -1.012150 -58.488400 0.000000 14.235000 0.000000 -21.563101 -18.603800 49.189999 1.988368 3.301269 -8.067186 0.000000 0.000000 5.081190 -15.990168 9.374423 0.744240 0.000000 0.000000 -31.224001 7.724708 4.427878 -6.125222 0.000000 0.000000 7.023960 14.802237 -20.961063 2.735874 0.000000 0.000000 -31.179600 
-18.763847 9.145175 42.952915 -175.342464 2.839312 -169.804626 1.930960 -0.217923 -9.520960 3.289277 0.197903 -9.903730 0.000000 0.000000 0.000000 -4.997766 -4.934092 26.239486 15.988251 9.260803 -86.722191 -23.362101 9.514020 -14.494700 15.979700 -13.614400 -26.797701 0.000000 -5.925640 0.000000 23.078100 5.253670 24.645100 20.138300 -6.387780 -7.130005 -9.882890 -1.040440 -58.494801 0.000000 14.253100 0.000000 -21.579500 -18.523100 49.024601 1.991613 3.275488 -8.056939 0.000000 0.000000 5.082840 -15.961260 9.406570 0.744207 0.000000 0.000000 -31.215799 7.733953 4.288677 -6.131564 0.000000 0.000000 7.054690 14.767806 -20.846432 2.774985 0.000000 0.000000 -31.189199 
-18.764457 9.145072 42.954240 -175.339172 2.824608 -169.822605 1.915413 -0.223950 -9.531453 3.281146 0.196633 -9.921579 0.000000 0.000000 0.000000 -5.057441 -4.817228 26.659107 16.087637 9.201878 -86.486602 -23.334000 9.536080 -14.483100 15.931600 -13.530500 -26.767300 0.000000 -6.053650 0.000000 23.060499 5.221370 24.527800 20.151400 -6.439690 -7.173004 -9.942020 -1.044840 -58.611698 0.000000 14.232800 0.000000 -21.691900 -18.318100 48.940498 1.992482 3.278102 -8.063131 0.000000 0.000000 5.108340 -15.979392 9.381799 0.736147 0.000000 0.000000 -31.241800 7.738950 4.255586 -6.137666 0.000000 0.000000 7.085840 14.766354 -20.833178 2.766715 0.000000 0.000000 -31.166100 
-18.765224 9.144953 42.955020 -175.333537 2.831955 -169.849206 1.901115 -0.220250 -9.567721 3.273482 0.203114 -9.894112 0.000000 0.000000 0.000000 -5.080697 -4.807516 27.110058 16.093769 9.157819 -86.299494 -23.363199 9.545660 -14.569700 15.935300 -13.549100 -26.746901 0.000000 -6.065790 0.000000 23.132000 5.184110 24.563299 20.157400 -6.492050 -7.251007 -9.977800 -1.029760 -58.574902 0.000000 14.221000 0.000000 -21.854500 -18.137600 49.139999 1.991803 3.296577 -8.049949 0.000000 0.000000 5.127100 -15.975701 9.367307 0.728008 0.000000 0.000000 -31.235600 7.740206 4.252565 -6.120033 0.000000 0.000000 7.092250 14.776927 -20.824138 2.763446 0.000000 0.000000 -31.145901 
-18.765912 9.144866 42.955822 -175.330083 2.833398 -169.872737 1.889698 -0.220970 -9.605982 3.251916 0.205029 -9.873104 0.000000 0.000000 0.000000 -5.098021 -4.756515 27.574675 16.086498 9.135375 -86.077271 -23.385401 9.595590 -14.664900 15.922500 -13.612300 -26.723900 0.000000 -6.086880 0.000000 23.137100 5.160860 24.476299 20.162901 -6.495720 -7.290985 -9.981750 -1.083330 -58.615799 0.000000 14.256800 0.000000 -21.921000 -18.070801 48.976799 1.991930 3.297371 -8.037524 0.000000 0.000000 5.139010 -15.967574 9.368807 0.723147 0.000000 0.000000 -31.240400 7.740688 4.257905 -6.104944 0.000000 0.000000 7.099440 14.773637 -20.828918 2.764497 0.000000 0.000000 -31.166901 
